<svg width="38" height="38" viewBox="0 0 38 38" fill="none" xmlns="http://www.w3.org/2000/svg">
<g id="bi:send-fill" clip-path="url(#clip0_229_1457)">
<path id="Vector" d="M37.9143 1.62922C38.0007 1.41341 38.0219 1.17701 37.9751 0.949301C37.9284 0.721594 37.8159 0.512604 37.6516 0.348238C37.4872 0.183873 37.2782 0.0713609 37.0505 0.0246507C36.8228 -0.0220595 36.5864 -0.000913664 36.3706 0.0854667L1.82145 13.9056H1.81908L0.745578 14.3331C0.542254 14.4142 0.365306 14.5499 0.234277 14.7253C0.103249 14.9006 0.0232403 15.1088 0.00308952 15.3268C-0.0170613 15.5447 0.0234299 15.764 0.12009 15.9604C0.216751 16.1568 0.365819 16.3227 0.550828 16.4397L1.52458 17.0572L1.52695 17.062L13.3901 24.6097L20.9378 36.4728L20.9426 36.4776L21.5601 37.4513C21.6775 37.6356 21.8434 37.784 22.0397 37.88C22.2359 37.9761 22.4549 38.0161 22.6724 37.9957C22.89 37.9754 23.0977 37.8953 23.2727 37.7645C23.4477 37.6337 23.5832 37.4571 23.6643 37.2542L37.9143 1.62922ZM33.561 6.11797L15.7627 23.9162L15.2521 23.1135C15.1585 22.9662 15.0336 22.8413 14.8863 22.7477L14.0836 22.2371L31.8818 4.43884L34.6796 3.32022L33.5633 6.11797H33.561Z" fill="#FFC107"/>
</g>
<defs>
<clipPath id="clip0_229_1457">
<rect width="38" height="38" fill="white"/>
</clipPath>
</defs>
</svg>
