<svg width="120" height="120" viewBox="0 0 120 120" fill="none" xmlns="http://www.w3.org/2000/svg">
<path d="M83.5042 39.28C90.9922 39.28 97.1042 39.984 101.84 41.392C106.64 42.8 110.352 45.456 112.976 49.36C115.664 53.264 117.008 58.864 117.008 66.16C117.008 73.968 115.6 79.92 112.784 84.016C109.968 88.048 106.192 90.736 101.456 92.08C96.7202 93.36 90.7362 94 83.5042 94H64.3042V39.28H83.5042ZM96.3682 80.944C97.1362 80.176 97.6802 78.192 98.0002 74.992C98.3202 71.792 98.4802 68.848 98.4802 66.16C98.4802 62.768 98.2242 60.08 97.7122 58.096C97.2642 56.048 96.4322 54.416 95.2162 53.2C93.2962 51.088 90.0002 50.032 85.3282 50.032C84.4962 50.032 83.2482 50.096 81.5842 50.224V82.096C82.6722 82.224 84.3682 82.288 86.6722 82.288C89.0402 82.288 91.1202 82.192 92.9122 82C94.7682 81.744 95.9202 81.392 96.3682 80.944Z" fill="#FFC107"/>
<g clip-path="url(#clip0_228_1136)">
<path d="M26.7435 32.0001C26.3504 32.0472 25.975 32.1636 25.6439 32.3409C25.6439 32.3409 22.2181 34.0798 18.5349 35.9608C14.8517 37.8395 10.7542 39.9105 9.8172 40.33C9.7594 40.3502 9.7025 40.3721 9.64659 40.3955C6.24509 42.0886 5.53825 44.8543 5.41638 46.4054C5.40825 46.4775 5.41638 46.5365 5.41638 46.6129C5.38659 47.1941 5.41638 47.5676 5.41638 47.5676V76.1053C5.41638 80.2517 11.4096 82.2462 17.0968 82.2462C18.9926 82.2462 20.8883 81.9993 22.5132 81.5624C23.5965 81.1255 24.3738 80.2517 24.3738 79.3778V56.4393C24.3738 51.4147 25.7279 49.0553 29.7902 47.0892C30.8735 46.6523 42.2317 40.3278 42.2317 40.3278C42.7733 39.8909 43.3312 39.0039 43.3312 38.3485V38.1432C43.3312 37.2693 42.7895 36.6009 41.9771 36.1639C41.1646 35.727 40.0813 35.727 39.2689 36.1639C38.9981 36.3824 22.478 45.3546 18.9574 46.8838C15.4367 48.6315 12.1517 49.0532 11.3392 48.1793C11.0873 47.9761 10.868 47.3535 10.8328 46.7462V46.6086C10.8355 46.0144 11.0251 44.8958 12.5254 44.1509C14.0474 43.4671 17.8254 41.5206 21.4977 39.6462C23.0495 38.8532 23.2418 38.768 24.4577 38.1432C24.6178 38.6769 25.0211 39.1424 25.5875 39.447C26.1538 39.7516 26.8415 39.8731 27.5138 39.7872C28.1861 39.7012 28.7937 39.4142 29.2155 38.9833C29.6373 38.5523 29.8425 38.0091 29.7902 37.4616V34.1847C29.7932 33.8733 29.7137 33.565 29.5569 33.2804C29.4002 32.9958 29.1698 32.7416 28.8813 32.5347C28.5928 32.3278 28.2528 32.1731 27.8841 32.0809C27.5153 31.9887 27.1265 31.9611 26.7435 32.0001ZM48.4091 39.6462C47.9784 39.704 47.5715 39.8449 47.2229 40.0569C47.2229 40.0569 33.5898 47.4562 31.2282 48.7255C31.1996 48.7483 31.1716 48.7716 31.1443 48.7954C29.1835 49.9816 28.0217 51.3929 27.5045 52.684C27.2146 53.4124 27.072 54.1736 27.082 54.9385V55.6223C27.0781 55.69 27.0781 55.7578 27.082 55.8255V82.2462C27.082 86.397 33.0075 88.8001 38.4239 88.8001C40.8613 88.8001 43.0604 88.3762 44.6853 87.5024C47.9351 85.9732 63.6427 76.1031 63.6427 76.1031C64.4552 75.6661 64.9968 75.0501 64.9968 74.3947V45.9947C64.9968 44.9024 64.4714 44.247 63.3881 43.8101C62.5757 43.3732 61.2405 43.5785 60.4281 44.0154C56.0949 46.637 44.4307 54.0385 41.7225 55.3492C37.931 57.0969 34.3589 57.5338 33.0048 56.4415C32.4632 56.0046 32.4984 55.5939 32.4984 54.9385C32.5146 54.5628 32.5661 54.2394 32.669 53.9817C32.8207 53.6015 33.1294 53.134 34.275 52.4131C34.3291 52.3781 34.302 52.3803 34.3589 52.3454C36.3169 51.2902 42.3048 47.998 46.21 45.8571C46.4313 46.3359 46.8536 46.737 47.4035 46.9906C47.9534 47.2442 48.5961 47.3343 49.2199 47.2452C49.8436 47.1561 50.4089 46.8934 50.8174 46.5029C51.2259 46.1124 51.4518 45.6187 51.4558 45.1077V41.8308C51.4588 41.5194 51.3793 41.2111 51.2225 40.9266C51.0658 40.642 50.8354 40.3878 50.5469 40.1809C50.2584 39.974 49.9184 39.8193 49.5497 39.7271C49.181 39.6348 48.7921 39.6073 48.4091 39.6462ZM59.5804 55.6223V59.9915L46.0394 68.4547V64.0855L59.5804 55.6223Z" fill="#FFC107"/>
</g>
<defs>
<clipPath id="clip0_228_1136">
<rect width="70.4132" height="56.8" fill="white" transform="translate(0 32)"/>
</clipPath>
</defs>
</svg>
