<svg width="40" height="40" viewBox="0 0 40 40" fill="none" xmlns="http://www.w3.org/2000/svg">
<g id="material-symbols:image-outline">
<path id="Vector" d="M8.33334 35C7.41667 35 6.63167 34.6733 5.97834 34.02C5.325 33.3667 4.99889 32.5822 5 31.6667V8.33334C5 7.41667 5.32667 6.63167 5.98 5.97834C6.63334 5.325 7.41778 4.99889 8.33334 5H31.6667C32.5833 5 33.3683 5.32667 34.0217 5.98C34.675 6.63334 35.0011 7.41778 35 8.33334V31.6667C35 32.5833 34.6733 33.3683 34.02 34.0217C33.3667 34.675 32.5822 35.0011 31.6667 35H8.33334ZM8.33334 31.6667H31.6667V8.33334H8.33334V31.6667ZM10 28.3333H30L23.75 20L18.75 26.6667L15 21.6667L10 28.3333Z" fill="#CED4DA"/>
</g>
</svg>
