<svg width="467" height="150" viewBox="0 0 467 150" fill="none" xmlns="http://www.w3.org/2000/svg">
<path d="M84 39.28C91.488 39.28 97.6 39.984 102.336 41.392C107.136 42.8 110.848 45.456 113.472 49.36C116.16 53.264 117.504 58.864 117.504 66.16C117.504 73.968 116.096 79.92 113.28 84.016C110.464 88.048 106.688 90.736 101.952 92.08C97.216 93.36 91.232 94 84 94H64.8V39.28H84ZM96.864 80.944C97.632 80.176 98.176 78.192 98.496 74.992C98.816 71.792 98.976 68.848 98.976 66.16C98.976 62.768 98.72 60.08 98.208 58.096C97.76 56.048 96.928 54.416 95.712 53.2C93.792 51.088 90.496 50.032 85.824 50.032C84.992 50.032 83.744 50.096 82.08 50.224V82.096C83.168 82.224 84.864 82.288 87.168 82.288C89.536 82.288 91.616 82.192 93.408 82C95.264 81.744 96.416 81.392 96.864 80.944ZM151.095 82.48C152.695 82.48 155.671 82.32 160.023 82C160.599 82 161.655 81.936 163.191 81.808L164.631 91.696C159.703 94 153.303 95.152 145.431 95.152C138.071 95.152 132.407 93.296 128.439 89.584C124.535 85.872 122.583 80.272 122.583 72.784C122.583 68.944 123.063 65.232 124.023 61.648C125.047 58.064 126.199 55.568 127.479 54.16C128.823 52.752 131.319 51.536 134.967 50.512C138.615 49.488 142.231 48.976 145.815 48.976C151.575 48.976 155.895 50 158.775 52.048C161.655 54.096 163.543 56.944 164.439 60.592C165.335 64.176 165.783 69.008 165.783 75.088C161.431 75.344 157.175 75.472 153.015 75.472H139.383C139.383 77.52 139.799 79.056 140.631 80.08C141.527 81.104 142.775 81.776 144.375 82.096C145.975 82.352 148.215 82.48 151.095 82.48ZM140.343 60.4C139.959 60.592 139.671 61.424 139.479 62.896C139.287 64.368 139.159 66.032 139.095 67.888H144.087C147.095 67.888 149.271 67.856 150.615 67.792C150.615 64.72 150.167 62.544 149.271 61.264C148.439 59.984 146.967 59.344 144.855 59.344C143.127 59.344 141.623 59.696 140.343 60.4ZM199.977 49.84H217.161L203.721 94H180.969L167.529 49.84H184.713L191.913 83.728H192.873L199.977 49.84ZM252.013 54.064C252.013 55.408 252.685 56.464 254.029 57.232C255.437 58 257.613 58.832 260.557 59.728C264.077 60.88 266.957 62 269.197 63.088C271.501 64.176 273.485 65.872 275.149 68.176C276.877 70.48 277.741 73.488 277.741 77.2C277.741 89.104 269.997 95.056 254.509 95.056C251.949 95.056 248.813 94.832 245.101 94.384C241.453 93.936 238.125 93.36 235.117 92.656C235.245 91.312 235.501 89.36 235.885 86.8C236.333 84.176 236.749 82.224 237.133 80.944C239.373 81.264 242.733 81.648 247.213 82.096C251.757 82.544 255.181 82.768 257.485 82.768C258.829 82.768 259.629 82.672 259.885 82.48C260.269 82.224 260.557 81.808 260.749 81.232C261.005 80.592 261.133 80.048 261.133 79.6C261.133 78.32 260.525 77.36 259.309 76.72C258.093 76.016 256.013 75.184 253.069 74.224C249.549 73.136 246.637 72.016 244.333 70.864C242.029 69.712 240.013 67.92 238.285 65.488C236.557 63.056 235.693 59.856 235.693 55.888C235.693 53.072 236.333 50.32 237.613 47.632C238.893 44.88 240.205 43.024 241.549 42.064C242.573 41.36 244.685 40.688 247.885 40.048C251.085 39.408 254.093 39.088 256.909 39.088C264.077 39.088 269.933 39.76 274.477 41.104C274.413 42.384 274.189 44.144 273.805 46.384C273.485 48.624 273.133 50.672 272.749 52.528L270.541 52.432C262.221 51.856 256.909 51.568 254.605 51.568C253.645 51.568 253.101 51.6 252.973 51.664C252.717 51.792 252.493 52.08 252.301 52.528C252.109 52.976 252.013 53.488 252.013 54.064ZM302.257 75.856C302.257 77.008 302.289 78.224 302.353 79.504C302.417 80.72 302.609 81.488 302.929 81.808C303.377 82.256 304.945 82.48 307.633 82.48L310.897 82.384C311.473 85.456 311.761 89.008 311.761 93.04C310.545 93.488 308.753 93.904 306.385 94.288C304.081 94.672 301.873 94.864 299.761 94.864C295.345 94.864 291.921 93.904 289.489 91.984C287.121 90 285.937 86.96 285.937 82.864V59.248H278.737V50.512L285.937 49.84L290.257 39.28L302.257 38.608V49.84H312.433V59.248H302.257V75.856ZM361.502 49.84V94H348.158L346.334 86.608C341.726 92.176 336.222 94.96 329.822 94.96C327.518 94.96 325.342 94.64 323.294 94C321.31 93.36 319.806 92.432 318.782 91.216C318.206 90.512 317.758 88.752 317.438 85.936C317.182 83.12 317.054 78.832 317.054 73.072V49.84H333.47V72.88C333.47 74.16 333.502 75.664 333.566 77.392C333.63 79.12 333.822 80.208 334.142 80.656C334.59 81.296 335.87 81.616 337.982 81.616L339.518 81.52C341.31 81.456 343.166 81.04 345.086 80.272V49.84H361.502ZM413.342 35.728V94H399.806L398.462 86.608C397.182 89.104 395.294 91.088 392.798 92.56C390.302 94.032 387.486 94.768 384.35 94.768C379.358 94.768 375.358 92.976 372.35 89.392C369.406 85.808 367.934 80.432 367.934 73.264C367.934 67.824 368.574 63.344 369.854 59.824C371.134 56.304 372.638 53.776 374.366 52.24C375.454 51.28 377.662 50.48 380.99 49.84C384.382 49.2 387.39 48.88 390.014 48.88C392.318 48.88 394.686 49.104 397.118 49.552C396.926 46.48 396.83 44.784 396.83 44.464V36.4L413.342 35.728ZM391.55 81.904C393.278 81.904 395.07 81.616 396.926 81.04V60.208C395.07 59.952 393.022 59.824 390.781 59.824C388.862 59.824 387.646 59.984 387.134 60.304C386.43 60.816 385.854 62.288 385.406 64.72C385.022 67.088 384.83 69.584 384.83 72.208C384.83 76.112 385.406 78.704 386.558 79.984C387.774 81.264 389.438 81.904 391.55 81.904ZM466.913 49.84L455.393 86.8C453.153 93.904 451.137 99.056 449.345 102.256C447.553 105.52 445.761 107.792 443.969 109.072C442.945 109.776 441.313 110.32 439.073 110.704C436.897 111.088 434.529 111.28 431.969 111.28C428.129 111.28 425.057 110.928 422.753 110.224C422.689 108.688 422.753 106.8 422.945 104.56C423.137 102.384 423.393 100.528 423.713 98.992C426.401 99.12 429.025 99.184 431.585 99.184C433.505 99.184 434.945 99.152 435.905 99.088C436.865 97.232 437.761 95.28 438.593 93.232L431.969 92.848L417.185 49.84H434.561L442.241 80.752L442.337 82.576H442.625L449.537 49.84H466.913Z" fill="#FFC107"/>
<g clip-path="url(#clip0_112_654)">
<path d="M26.9663 39.9999C26.57 40.0589 26.1915 40.2043 25.8576 40.4259C25.8576 40.4259 22.4032 42.5996 18.6894 44.9508C14.9755 47.2993 10.8439 49.8881 9.89903 50.4124C9.84075 50.4377 9.78337 50.465 9.72699 50.4943C6.29715 52.6106 5.58442 56.0678 5.46153 58.0066C5.45334 58.0968 5.46153 58.1705 5.46153 58.2661C5.43149 58.9924 5.46153 59.4594 5.46153 59.4594V95.1314C5.46153 100.314 11.5047 102.808 17.2393 102.808C19.1509 102.808 21.0624 102.499 22.7009 101.953C23.7932 101.407 24.5769 100.314 24.5769 99.2221V70.5491C24.5769 64.2683 25.9423 61.3191 30.0385 58.8614C31.1308 58.3152 42.5836 50.4096 42.5836 50.4096C43.1298 49.8635 43.6923 48.7548 43.6923 47.9356V47.6789C43.6923 46.5866 43.1461 45.7509 42.3269 45.2048C41.5077 44.6586 40.4154 44.6586 39.5961 45.2048C39.3231 45.4779 22.6654 56.6931 19.1154 58.6047C15.5654 60.7893 12.253 61.3163 11.4337 60.224C11.1798 59.9701 10.9586 59.1918 10.9231 58.4326V58.2606C10.9258 57.5178 11.117 56.1197 12.6298 55.1885C14.1645 54.3338 17.9739 51.9006 21.6768 49.5576C23.2416 48.5664 23.4355 48.4599 24.6616 47.6789C24.823 48.346 25.2297 48.9278 25.8007 49.3086C26.3717 49.6894 27.0652 49.8412 27.7431 49.7338C28.421 49.6264 29.0336 49.2676 29.459 48.729C29.8843 48.1903 30.0912 47.5112 30.0385 46.8269V42.7307C30.0415 42.3415 29.9613 41.9561 29.8033 41.6004C29.6452 41.2447 29.4129 40.9269 29.122 40.6683C28.8311 40.4097 28.4882 40.2163 28.1164 40.101C27.7447 39.9857 27.3525 39.9513 26.9663 39.9999ZM48.8125 49.5576C48.3782 49.6299 47.9679 49.806 47.6164 50.071C47.6164 50.071 33.8697 59.3201 31.4885 60.9067C31.4596 60.9352 31.4314 60.9643 31.4038 60.9941C29.4268 62.4769 28.2553 64.241 27.7337 65.8549C27.4414 66.7653 27.2976 67.7169 27.3077 68.673V69.5278C27.3037 69.6124 27.3037 69.6971 27.3077 69.7817V102.808C27.3077 107.996 33.2826 111 38.7441 111C41.2018 111 43.4192 110.47 45.0577 109.378C48.3346 107.466 64.1731 95.1287 64.1731 95.1287C64.9923 94.5826 65.5385 93.8125 65.5385 92.9933V57.4933C65.5385 56.1279 65.0087 55.3086 63.9164 54.7625C63.0971 54.2163 61.7509 54.473 60.9316 55.0192C56.5624 58.2961 44.801 67.5479 42.0702 69.1864C38.2471 71.371 34.6453 71.9172 33.2799 70.5518C32.7337 70.0056 32.7692 69.4923 32.7692 68.673C32.7856 68.2033 32.8375 67.7992 32.9413 67.4769C33.0942 67.0018 33.4055 66.4174 34.5606 65.5163C34.6152 65.4726 34.5879 65.4753 34.6453 65.4316C36.6196 64.1126 42.6573 59.9974 46.5951 57.3212C46.8182 57.9197 47.244 58.4211 47.7985 58.7381C48.353 59.0551 49.0011 59.1677 49.63 59.0564C50.259 58.945 50.829 58.6167 51.2409 58.1285C51.6528 57.6404 51.8806 57.0233 51.8846 56.3846V52.2884C51.8877 51.8992 51.8075 51.5138 51.6494 51.1581C51.4913 50.8024 51.2591 50.4846 50.9681 50.226C50.6772 49.9674 50.3344 49.774 49.9626 49.6587C49.5908 49.5434 49.1987 49.509 48.8125 49.5576ZM60.0769 69.5278V74.9893L46.4231 85.5683V80.1068L60.0769 69.5278Z" fill="#FFC107"/>
</g>
<defs>
<clipPath id="clip0_112_654">
<rect width="71" height="71" fill="white" transform="translate(0 40)"/>
</clipPath>
</defs>
</svg>
